HIERARCHY
ROOT SpineBase
{
  OFFSET 0.000000 0.000000 0.000000
  CHANNELS 6 Xposition Yposition Zposition Zrotation Xrotation Yrotation
  JOINT SpineMid
  {
    OFFSET 0.000000 30.054541 0.000000
    CHANNELS 3 Zrotation Xrotation Yrotation
    JOINT SpineShoulder
    {
      OFFSET -0.108961 22.321994 -0.727729
      CHANNELS 3 Zrotation Xrotation Yrotation
      JOINT Neck
      {
        OFFSET -0.085934 7.362174 -0.516143
        CHANNELS 3 Zrotation Xrotation Yrotation
        JOINT Head
        {
          OFFSET 3.425761 12.771869 0.026015
          CHANNELS 3 Zrotation Xrotation Yrotation
          End Site
          {
            OFFSET 0 0 0
          }
        }
      }
      JOINT ShoulderLeft
      {
        OFFSET -14.693462 -3.892877 -9.013734
        CHANNELS 3 Zrotation Xrotation Yrotation
        JOINT ElbowLeft
        {
          OFFSET -6.040576 -24.264356 -2.226600
          CHANNELS 3 Zrotation Xrotation Yrotation
          JOINT WristLeft
          {
            OFFSET 0.411646 -18.561009 -3.699815
            CHANNELS 3 Zrotation Xrotation Yrotation
            JOINT HandLeft
            {
              OFFSET 0.675478 -3.560779 0.782394
              CHANNELS 3 Zrotation Xrotation Yrotation
              JOINT HandTipLeft
              {
                OFFSET 0.249056 -4.848087 -0.509295
                CHANNELS 3 Zrotation Xrotation Yrotation
                End Site
                {
                  OFFSET 0 0 0
                }
              }
              JOINT ThumbLeft
              {
                OFFSET 3.354817 0.023629 -1.765475
                CHANNELS 3 Zrotation Xrotation Yrotation
                End Site
                {
                  OFFSET 0 0 0
                }
              }
            }
          }
        }
      }
      JOINT ShoulderRight
      {
        OFFSET 15.401456 -5.078719 3.429275
        CHANNELS 3 Zrotation Xrotation Yrotation
        JOINT ElbowRight
        {
          OFFSET 4.555015 -24.172811 2.796670
          CHANNELS 3 Zrotation Xrotation Yrotation
          JOINT WristRight
          {
            OFFSET -1.331810 -20.901928 -2.450575
            CHANNELS 3 Zrotation Xrotation Yrotation
            JOINT HandRight
            {
              OFFSET -0.526444 -4.178220 0.022003
              CHANNELS 3 Zrotation Xrotation Yrotation
              JOINT HandTipRight
              {
                OFFSET -0.255144 -7.227193 2.108658
                CHANNELS 3 Zrotation Xrotation Yrotation
                End Site
                {
                  OFFSET 0 0 0
                }
              }
              JOINT ThumbRight
              {
                OFFSET -3.499329 0.471434 -1.778769
                CHANNELS 3 Zrotation Xrotation Yrotation
                End Site
                {
                  OFFSET 0 0 0
                }
              }
            }
          }
        }
      }
    }
  }
  JOINT HipLeft
  {
    OFFSET -7.191611 0.912804 -6.367546
    CHANNELS 3 Zrotation Xrotation Yrotation
    JOINT KneeLeft
    {
      OFFSET -6.457512 -27.881889 9.984101
      CHANNELS 3 Zrotation Xrotation Yrotation
      JOINT AnkleLeft
      {
        OFFSET -2.648221 -29.583219 7.226995
        CHANNELS 3 Zrotation Xrotation Yrotation
        JOINT FootLeft
        {
          OFFSET 3.150598 -3.761545 -11.262108
          CHANNELS 3 Zrotation Xrotation Yrotation
          End Site
          {
            OFFSET 0 0 0
          }
        }
      }
    }
  }
  JOINT HipRight
  {
    OFFSET 6.580441 0.269572 -0.433003
    CHANNELS 3 Zrotation Xrotation Yrotation
    JOINT KneeRight
    {
      OFFSET -6.778901 -28.279783 10.920657
      CHANNELS 3 Zrotation Xrotation Yrotation
      JOINT AnkleRight
      {
        OFFSET -4.752023 -29.284886 8.168408
        CHANNELS 3 Zrotation Xrotation Yrotation
        JOINT FootRight
        {
          OFFSET 3.637352 -3.117101 -13.313803
          CHANNELS 3 Zrotation Xrotation Yrotation
          End Site
          {
            OFFSET 0 0 0
          }
        }
      }
    }
  }
}
MOTION
Frames: 11
Frame Time: 0.033333
33.765382 67.437543 362.916007 2.578818 -0.774472 -27.428269 -0.421322 0.509330 27.512876 0.018754 -0.061230 0.092485 -5.446750 13.300421 -3.310076 0.000000 0.000000 0.000000 -10.338860 18.156748 -2.587759 68.704396 0.971306 1.593676 -0.419534 20.188464 22.077741 -8.610208 -24.867347 -14.025907 0.000000 0.000000 0.000000 0.000000 0.000000 0.000000 -4.864639 -8.593938 -2.268602 39.787636 62.211303 -29.662548 24.314424 46.723903 -19.235432 -15.939547 -1.961729 2.462972 0.000000 0.000000 0.000000 0.000000 0.000000 0.000000 -7.004106 20.834134 25.321968 -13.696923 -21.815576 -3.005915 -36.315317 -59.989153 -53.499204 0.000000 0.000000 0.000000 -1.036964 12.606400 27.540123 -13.253523 -10.002957 -3.684926 -0.888894 -24.607683 45.417776 0.000000 0.000000 0.000000
33.824225 67.465627 363.127419 2.967617 -0.629805 -29.037087 -0.444473 0.497982 29.131346 -0.005366 -0.087877 0.106672 -4.431548 13.240891 -3.533193 0.000000 0.000000 0.000000 1.112974 19.812850 -6.153122 65.070864 -0.358059 3.502059 7.005135 17.827168 26.417653 -11.889394 -18.896202 -18.130285 0.000000 0.000000 0.000000 0.000000 0.000000 0.000000 -6.051888 3.593630 0.197493 44.720783 61.938072 -32.725028 15.708153 35.494415 -10.682665 -24.520015 -0.161452 -22.854907 0.000000 0.000000 0.000000 0.000000 0.000000 0.000000 -7.802820 19.791536 27.001139 -14.333914 -20.406741 -3.439118 -60.678615 -62.991037 -81.906010 0.000000 0.000000 0.000000 -2.197169 13.041449 28.961086 -13.017137 -10.948445 -3.506212 -0.457962 -27.628916 51.622587 0.000000 0.000000 0.000000
33.875013 67.572133 363.311294 3.282992 -0.474018 -30.382135 -0.411635 0.478278 30.484189 -0.015575 -0.118934 0.120644 -3.090669 13.271079 -3.807366 0.000000 0.000000 0.000000 12.147007 19.696289 -9.407982 62.213698 -2.362021 5.032109 8.610276 16.028018 29.470336 -8.857992 -13.584920 -21.926281 0.000000 0.000000 0.000000 0.000000 0.000000 0.000000 -7.191595 16.182453 3.021343 52.459527 60.208131 -36.584123 27.034488 48.833236 -19.354014 -27.364067 -17.961828 -22.341035 0.000000 0.000000 0.000000 0.000000 0.000000 0.000000 -8.265188 18.802737 28.419083 -14.261617 -19.944000 -3.419373 -37.011794 -58.386104 -62.465849 0.000000 0.000000 0.000000 -3.222433 13.762557 30.119954 -13.055254 -12.196349 -3.424325 0.137537 -32.438753 46.307111 0.000000 0.000000 0.000000
33.887942 67.706973 363.413843 3.469932 -0.275670 -30.401936 -0.351664 0.548470 30.506459 -0.013313 -0.111035 0.132792 -1.172222 13.109536 -4.130328 0.000000 0.000000 0.000000 21.575091 18.380940 -11.764059 58.374698 -4.797687 6.548841 9.145744 13.758067 31.655591 -3.530639 -7.698516 -27.486762 0.000000 0.000000 0.000000 0.000000 0.000000 0.000000 -8.602024 26.567697 5.700663 64.580480 59.754430 -43.020171 37.248531 37.627701 28.702064 -32.164040 17.284341 -42.646418 0.000000 0.000000 0.000000 0.000000 0.000000 0.000000 -8.197568 18.302700 28.432774 -13.401565 -21.063067 -2.900728 -12.618539 -44.576332 -39.895741 0.000000 0.000000 0.000000 -3.475614 13.507125 30.054766 -12.938027 -12.096046 -3.388790 -0.441611 -32.686840 36.998209 0.000000 0.000000 0.000000
33.730684 67.903839 363.437350 3.442250 -0.001664 -29.899741 -0.254187 0.542973 29.999851 -0.025551 -0.119371 0.135372 0.983774 12.998019 -4.433844 0.000000 0.000000 0.000000 28.866735 16.268922 -12.845945 54.595882 -6.706156 7.005927 8.955781 11.678110 33.218616 -0.383936 -3.293458 -32.129551 0.000000 0.000000 0.000000 0.000000 0.000000 0.000000 -8.314125 32.530967 7.252987 76.139499 56.997833 -47.490896 41.838713 13.488639 72.611687 -1.453975 43.673941 -46.763287 0.000000 0.000000 0.000000 0.000000 0.000000 0.000000 -7.542257 18.164929 27.974095 -13.692209 -20.917658 -3.046375 -10.419893 -42.740030 -37.025815 0.000000 0.000000 0.000000 -2.947130 12.636503 29.630280 -12.796174 -11.046945 -3.420992 -1.046570 -33.593029 28.444557 0.000000 0.000000 0.000000
33.439128 68.094104 363.406761 3.251484 0.313786 -28.509809 -0.125902 0.469395 28.601894 -0.055898 -0.159109 0.130038 3.068106 12.811450 -4.640206 0.000000 0.000000 0.000000 35.127834 14.273819 -13.413069 50.034379 -8.614419 7.495359 8.143682 14.089709 31.239150 -2.731093 0.531990 -34.594733 0.000000 0.000000 0.000000 0.000000 0.000000 0.000000 -9.053958 36.998467 8.723011 88.484750 53.576773 -49.060618 37.921851 1.994642 83.257219 7.091990 39.967034 -20.986074 0.000000 0.000000 0.000000 0.000000 0.000000 0.000000 -6.513264 18.684069 26.571075 -13.752228 -21.636129 -3.008506 -6.593661 -38.016885 -31.857370 0.000000 0.000000 0.000000 -1.750613 11.346309 28.460130 -12.725296 -9.217587 -3.558915 -2.174798 -36.683827 17.954834 0.000000 0.000000 0.000000
33.152149 68.308472 363.460545 3.070716 0.548246 -26.305928 -0.047353 0.383572 26.390984 -0.061391 -0.160971 0.123957 4.594963 12.412515 -4.686812 0.000000 0.000000 0.000000 39.686587 12.365489 -13.368160 43.568632 -9.689521 6.905553 11.343953 19.128768 27.494359 -6.196019 11.343413 -43.210630 0.000000 0.000000 0.000000 0.000000 0.000000 0.000000 -9.664879 38.860375 9.498096 98.615686 49.486909 -47.466572 35.283366 -13.471825 90.851676 16.154227 32.299079 4.675976 0.000000 0.000000 0.000000 0.000000 0.000000 0.000000 -5.348817 19.624182 24.258358 -13.610005 -22.924073 -2.817465 -3.511520 -32.478051 -25.727257 0.000000 0.000000 0.000000 -0.455248 10.304080 26.504293 -12.789492 -7.619501 -3.739156 -1.924084 -35.462332 18.335154 0.000000 0.000000 0.000000
32.818446 68.534882 363.516288 2.819394 0.746589 -23.978439 0.036462 0.302369 24.056516 -0.058911 -0.157116 0.116038 5.651891 11.791550 -4.572991 0.000000 0.000000 0.000000 43.882626 10.988075 -13.447101 38.565237 -11.146138 7.246806 12.624302 25.234831 22.395497 -8.733976 21.130639 -50.742319 0.000000 0.000000 0.000000 0.000000 0.000000 0.000000 -10.092594 38.597003 9.616418 105.623251 45.183213 -43.619788 21.360273 -15.017720 69.705541 -2.832813 20.267123 27.627299 0.000000 0.000000 0.000000 0.000000 0.000000 0.000000 -4.021380 20.707825 21.780067 -12.990345 -25.000558 -2.275035 1.164413 -19.634589 -16.949453 0.000000 0.000000 0.000000 0.909682 9.417763 24.469195 -12.991518 -6.173727 -3.968158 -1.178010 -33.280136 25.333422 0.000000 0.000000 0.000000
32.477323 68.732621 363.580239 2.519351 0.881374 -21.525329 0.105401 0.229724 21.596555 -0.048150 -0.145443 0.106425 6.340167 10.966327 -4.318660 0.000000 0.000000 0.000000 46.392255 10.656127 -13.778646 37.115968 -12.904914 8.831147 10.432356 34.985167 14.635088 -11.779035 3.459248 -39.052814 0.000000 0.000000 0.000000 0.000000 0.000000 0.000000 -11.681259 36.260149 9.359862 106.984060 40.224277 -35.383556 -1.998416 -24.162817 32.790757 -0.694092 11.274915 36.680888 0.000000 0.000000 0.000000 0.000000 0.000000 0.000000 -2.691134 21.929669 19.077250 -11.963748 -27.052316 -1.444359 2.391378 -10.274313 -11.639036 0.000000 0.000000 0.000000 2.226762 8.729352 22.298038 -13.183513 -5.059609 -4.163104 -1.469814 -37.837808 25.752910 0.000000 0.000000 0.000000
32.173040 68.892995 363.622598 2.237227 0.998755 -19.441003 0.168500 0.160648 19.506479 -0.024064 -0.147701 0.098859 7.135208 10.422604 -4.169863 0.000000 0.000000 0.000000 48.059584 10.738267 -14.216335 35.141049 -12.637393 8.732070 8.893909 39.075806 12.108665 -9.078026 -9.361593 -30.742703 0.000000 0.000000 0.000000 0.000000 0.000000 0.000000 -10.474401 35.066206 8.786524 106.308315 40.310462 -37.176906 -1.494291 -24.569318 32.876768 -4.040818 5.428035 37.010623 0.000000 0.000000 0.000000 0.000000 0.000000 0.000000 -1.490229 22.939213 16.729884 -11.731690 -28.176176 -1.153830 2.032533 -8.349787 -9.639552 0.000000 0.000000 0.000000 3.228513 8.085083 20.427940 -13.172136 -4.117981 -4.261032 -1.055057 -36.506586 31.439496 0.000000 0.000000 0.000000
31.972448 69.042673 363.695715 2.058535 1.023072 -17.925926 0.186788 0.108914 17.987664 -0.005689 -0.152163 0.093233 7.581877 10.222770 -4.105221 0.000000 0.000000 0.000000 50.763090 11.233145 -15.346931 30.738701 -11.875975 8.413679 8.713227 40.102832 12.060643 -2.831070 -16.590082 -24.904513 0.000000 0.000000 0.000000 0.000000 0.000000 0.000000 -8.196572 33.936667 8.016144 99.553089 43.676348 -42.044996 13.478734 -26.999264 51.437397 -7.180372 9.174564 28.445343 0.000000 0.000000 0.000000 0.000000 0.000000 0.000000 -0.833172 23.779552 14.934852 -11.497985 -28.919137 -0.924590 1.478696 -8.931933 -9.099138 0.000000 0.000000 0.000000 3.826219 7.889745 19.007569 -13.130914 -3.818893 -4.285679 -1.387270 -29.439957 29.953117 0.000000 0.000000 0.000000
